<svg width="40" height="40" viewBox="0 0 40 40" fill="none" xmlns="http://www.w3.org/2000/svg">
<circle cx="20" cy="20" r="20" fill="#666666"/>
<path d="M31.6194 29.7736L26.6609 24.8151C28.2772 22.7347 29.1323 20.0391 28.7778 17.1349C28.1938 12.3432 24.2729 8.51616 19.4708 8.05212C12.8907 7.4108 7.41082 12.8907 8.05214 19.4708C8.51619 24.2728 12.3433 28.1938 17.1349 28.7777C20.0443 29.1323 22.74 28.272 24.8151 26.6609L29.7736 31.6194C30.2846 32.1303 31.1084 32.1303 31.6194 31.6194C32.1303 31.1084 32.1303 30.2846 31.6194 29.7736ZM10.607 18.428C10.607 14.1108 14.1108 10.607 18.428 10.607C22.7452 10.607 26.249 14.1108 26.249 18.428C26.249 22.7451 22.7452 26.2489 18.428 26.2489C14.1108 26.2489 10.607 22.7451 10.607 18.428Z" fill="white"/>
</svg>
